<svg xmlns="http://www.w3.org/2000/svg" viewBox="-10 0 30 13">

  <path class="level-2" d="M10.478 1.647a.5.5 0 1 0-.956-.294l-4 13a.5.5 0 0 0 .956.294l4-13zM4.854 4.146a.5.5 0 0 1 0 .708L1.707 8l3.147 3.146a.5.5 0 0 1-.708.708l-3.5-3.5a.5.5 0 0 1 0-.708l3.5-3.5a.5.5 0 0 1 .708 0zm6.292 0a.5.5 0 0 0 0 .708L14.293 8l-3.147 3.146a.5.5 0 0 0 .708.708l3.5-3.5a.5.5 0 0 0 0-.708l-3.5-3.5a.5.5 0 0 0-.708 0z"/>

<!-- This is the Way - mandalorian icon
							<path class="level-2"  d="M2.485,10.057v-3.41H2.473l0.012-4.845h1.366c0.378,0,0.683-0.306,0.683-0.683c0-0.378-0.306-0.683-0.683-0.683H1.119c-0.378,0-0.683,0.306-0.683,0.683c0,0.378,0.306,0.683,0.683,0.683h0.683v4.845C1.406,6.788,1.119,7.163,1.119,7.609v2.733c0,0.566,0.459,1.025,1.025,1.025c0.053,0,0.105-0.008,0.157-0.016l-0.499,5.481l5.9,2.733h0.931C8.634,13.266,5.234,10.458,2.485,10.057z"></path>
							<path  class="level-2" d="M18.169,6.584c-0.303-3.896-3.202-6.149-7.486-6.149c-4.282,0-7.183,2.252-7.484,6.149H18.169z M15.463,3.187c0.024,0.351-0.103,0.709-0.394,0.977c-0.535,0.495-1.405,0.495-1.94,0c-0.29-0.268-0.418-0.626-0.394-0.977C13.513,3.827,14.683,3.827,15.463,3.187z"></path>
							<path  class="level-2" d="M18.887,10.056c-2.749,0.398-6.154,3.206-6.154,9.508h0.933l5.899-2.733L18.887,10.056z"></path>
-->
  
  
  <!-- <path d="M4 10.94h.41v4H6v.42H4z"/>
  <path d="M6 11h.44l1.34 3.41L9.18 11h.44l-1.76 4.36h-.09z"/>
  <path d="M11.62 15.34h-2v-.43h1.55v-4h.41z"/>
  <path class="level-2" d="M13.84 9.36a3.13 3.13 0 01.7-1.94L13.26 6A4.94 4.94 0 0012 9.31v.43h1.83z"/>
  <path class="level-2" d="M20 16h-4.54l2.17-2.43c.48-.56.87-1.05 1.18-1.49l-1.3-1.42c-.3.44-.76 1-1.38 1.76L11.22 18h6.93z"/> -->
</svg>
